<svg width="150" height="150" viewBox="0 0 150 150" fill="none" xmlns="http://www.w3.org/2000/svg">
<path d="M60.9375 24.6094H32.8125C30.6369 24.6094 28.5504 25.4736 27.012 27.012C25.4736 28.5504 24.6094 30.6369 24.6094 32.8125V60.9375C24.6094 62.0148 24.8216 63.0815 25.2338 64.0767C25.646 65.0719 26.2503 65.9763 27.012 66.738C27.7737 67.4997 28.6781 68.104 29.6733 68.5162C30.6685 68.9284 31.7353 69.1406 32.8125 69.1406H60.9375C62.0148 69.1406 63.0815 68.9284 64.0767 68.5162C65.0719 68.104 65.9763 67.4997 66.738 66.738C67.4997 65.9763 68.104 65.0719 68.5162 64.0767C68.9284 63.0815 69.1406 62.0148 69.1406 60.9375V32.8125C69.1406 31.7353 68.9284 30.6685 68.5162 29.6733C68.104 28.6781 67.4997 27.7737 66.738 27.012C65.9763 26.2503 65.0719 25.646 64.0767 25.2338C63.0815 24.8216 62.0148 24.6094 60.9375 24.6094ZM62.1094 60.9375C62.1094 61.2483 61.9859 61.5464 61.7661 61.7661C61.5464 61.9859 61.2483 62.1094 60.9375 62.1094H32.8125C32.5017 62.1094 32.2036 61.9859 31.9839 61.7661C31.7641 61.5464 31.6406 61.2483 31.6406 60.9375V32.8125C31.6406 32.5017 31.7641 32.2036 31.9839 31.9839C32.2036 31.7641 32.5017 31.6406 32.8125 31.6406H60.9375C61.2483 31.6406 61.5464 31.7641 61.7661 31.9839C61.9859 32.2036 62.1094 32.5017 62.1094 32.8125V60.9375ZM60.9375 80.8594H32.8125C30.6369 80.8594 28.5504 81.7236 27.012 83.262C25.4736 84.8004 24.6094 86.8869 24.6094 89.0625V117.188C24.6094 119.363 25.4736 121.45 27.012 122.988C28.5504 124.526 30.6369 125.391 32.8125 125.391H60.9375C62.0148 125.391 63.0815 125.178 64.0767 124.766C65.0719 124.354 65.9763 123.75 66.738 122.988C67.4997 122.226 68.104 121.322 68.5162 120.327C68.9284 119.331 69.1406 118.265 69.1406 117.188V89.0625C69.1406 87.9852 68.9284 86.9185 68.5162 85.9233C68.104 84.928 67.4997 84.0237 66.738 83.262C65.9763 82.5003 65.0719 81.896 64.0767 81.4838C63.0815 81.0716 62.0148 80.8594 60.9375 80.8594ZM62.1094 117.188C62.1094 117.498 61.9859 117.796 61.7661 118.016C61.5464 118.236 61.2483 118.359 60.9375 118.359H32.8125C32.5017 118.359 32.2036 118.236 31.9839 118.016C31.7641 117.796 31.6406 117.498 31.6406 117.188V89.0625C31.6406 88.7517 31.7641 88.4536 31.9839 88.2339C32.2036 88.0141 32.5017 87.8906 32.8125 87.8906H60.9375C61.2483 87.8906 61.5464 88.0141 61.7661 88.2339C61.9859 88.4536 62.1094 88.7517 62.1094 89.0625V117.188ZM117.188 24.6094H89.0625C86.8869 24.6094 84.8004 25.4736 83.262 27.012C81.7236 28.5504 80.8594 30.6369 80.8594 32.8125V60.9375C80.8594 62.0148 81.0716 63.0815 81.4838 64.0767C81.896 65.0719 82.5003 65.9763 83.262 66.738C84.0237 67.4997 84.928 68.104 85.9233 68.5162C86.9185 68.9284 87.9852 69.1406 89.0625 69.1406H117.188C118.265 69.1406 119.331 68.9284 120.327 68.5162C121.322 68.104 122.226 67.4997 122.988 66.738C123.75 65.9763 124.354 65.0719 124.766 64.0767C125.178 63.0815 125.391 62.0148 125.391 60.9375V32.8125C125.391 30.6369 124.526 28.5504 122.988 27.012C121.45 25.4736 119.363 24.6094 117.188 24.6094ZM118.359 60.9375C118.359 61.2483 118.236 61.5464 118.016 61.7661C117.796 61.9859 117.498 62.1094 117.188 62.1094H89.0625C88.7517 62.1094 88.4536 61.9859 88.2339 61.7661C88.0141 61.5464 87.8906 61.2483 87.8906 60.9375V32.8125C87.8906 32.5017 88.0141 32.2036 88.2339 31.9839C88.4536 31.7641 88.7517 31.6406 89.0625 31.6406H117.188C117.498 31.6406 117.796 31.7641 118.016 31.9839C118.236 32.2036 118.359 32.5017 118.359 32.8125V60.9375ZM80.8594 103.125V84.375C80.8594 83.4426 81.2298 82.5484 81.8891 81.8891C82.5484 81.2298 83.4426 80.8594 84.375 80.8594C85.3074 80.8594 86.2016 81.2298 86.8609 81.8891C87.5202 82.5484 87.8906 83.4426 87.8906 84.375V103.125C87.8906 104.057 87.5202 104.952 86.8609 105.611C86.2016 106.27 85.3074 106.641 84.375 106.641C83.4426 106.641 82.5484 106.27 81.8891 105.611C81.2298 104.952 80.8594 104.057 80.8594 103.125ZM125.391 93.75C125.391 94.6824 125.02 95.5766 124.361 96.2359C123.702 96.8952 122.807 97.2656 121.875 97.2656H106.641V121.875C106.641 122.807 106.27 123.702 105.611 124.361C104.952 125.02 104.057 125.391 103.125 125.391H84.375C83.4426 125.391 82.5484 125.02 81.8891 124.361C81.2298 123.702 80.8594 122.807 80.8594 121.875C80.8594 120.943 81.2298 120.048 81.8891 119.389C82.5484 118.73 83.4426 118.359 84.375 118.359H99.6094V84.375C99.6094 83.4426 99.9798 82.5484 100.639 81.8891C101.298 81.2298 102.193 80.8594 103.125 80.8594C104.057 80.8594 104.952 81.2298 105.611 81.8891C106.27 82.5484 106.641 83.4426 106.641 84.375V90.2344H121.875C122.807 90.2344 123.702 90.6048 124.361 91.2641C125.02 91.9234 125.391 92.8176 125.391 93.75ZM125.391 112.5V121.875C125.391 122.807 125.02 123.702 124.361 124.361C123.702 125.02 122.807 125.391 121.875 125.391C120.943 125.391 120.048 125.02 119.389 124.361C118.73 123.702 118.359 122.807 118.359 121.875V112.5C118.359 111.568 118.73 110.673 119.389 110.014C120.048 109.355 120.943 108.984 121.875 108.984C122.807 108.984 123.702 109.355 124.361 110.014C125.02 110.673 125.391 111.568 125.391 112.5Z" fill="#7239EA"/>
</svg>
