<svg width="100" height="100" viewBox="0 0 100 100" fill="none" xmlns="http://www.w3.org/2000/svg">
<path d="M29.167 29.167V20.8337C29.167 18.4207 29.8655 16.0593 31.1781 14.0345C32.4907 12.0097 34.3612 10.4081 36.564 9.42305C38.7668 8.43797 41.2076 8.11151 43.5918 8.48308C45.9761 8.85465 48.2018 9.90837 50.0003 11.517C51.7989 9.90837 54.0246 8.85465 56.4088 8.48308C58.793 8.11151 61.2339 8.43797 63.4366 9.42305C65.6394 10.4081 67.51 12.0097 68.8226 14.0345C70.1351 16.0593 70.8336 18.4207 70.8337 20.8337V29.167H77.0837C78.7413 29.167 80.331 29.8255 81.5031 30.9976C82.6752 32.1697 83.3337 33.7594 83.3337 35.417V47.9087C81.3284 47.0741 79.23 46.4838 77.0837 46.1504V35.417H60.4587V48.8629C58.1734 50.0485 56.0689 51.554 54.2087 53.3337V35.417H22.917V75.0004C22.917 76.3683 23.1864 77.7229 23.7099 78.9867C24.2334 80.2505 25.0007 81.3988 25.968 82.3661C26.9352 83.3334 28.0836 84.1006 29.3474 84.6241C30.6112 85.1476 31.9657 85.417 33.3337 85.417H48.8837C50.0757 87.7036 51.5882 89.8082 53.3753 91.667H33.3337C28.9134 91.667 24.6742 89.9111 21.5485 86.7855C18.4229 83.6599 16.667 79.4207 16.667 75.0004V35.417C16.667 33.7594 17.3255 32.1697 18.4976 30.9976C19.6697 29.8255 21.2594 29.167 22.917 29.167H29.167ZM47.917 29.167V20.8337C47.917 19.1761 47.2585 17.5864 46.0864 16.4143C44.9143 15.2422 43.3246 14.5837 41.667 14.5837C40.0094 14.5837 38.4197 15.2422 37.2476 16.4143C36.0755 17.5864 35.417 19.1761 35.417 20.8337V29.167H47.917ZM54.167 29.167H64.5837V20.8337C64.5838 19.5472 64.1869 18.292 63.4471 17.2394C62.7074 16.1868 61.6608 15.3882 60.4503 14.9525C59.2398 14.5168 57.9244 14.4652 56.6835 14.8049C55.4426 15.1446 54.3368 15.8589 53.517 16.8504C53.9378 18.1004 54.167 19.442 54.167 20.8337V29.167ZM95.8337 72.917C95.8337 78.9949 93.4192 84.8239 89.1215 89.1216C84.8238 93.4193 78.9949 95.8337 72.917 95.8337C66.8391 95.8337 61.0102 93.4193 56.7125 89.1216C52.4148 84.8239 50.0003 78.9949 50.0003 72.917C50.0003 66.8392 52.4148 61.0102 56.7125 56.7125C61.0102 52.4148 66.8391 50.0004 72.917 50.0004C78.9949 50.0004 84.8238 52.4148 89.1215 56.7125C93.4192 61.0102 95.8337 66.8392 95.8337 72.917ZM64.5837 60.417C64.0311 60.417 63.5012 60.6365 63.1105 61.0272C62.7198 61.4179 62.5003 61.9478 62.5003 62.5004V83.3337C62.5003 83.8862 62.7198 84.4162 63.1105 84.8069C63.5012 85.1976 64.0311 85.417 64.5837 85.417C65.1362 85.417 65.6661 85.1976 66.0568 84.8069C66.4475 84.4162 66.667 83.8862 66.667 83.3337V62.5004C66.667 61.9478 66.4475 61.4179 66.0568 61.0272C65.6661 60.6365 65.1362 60.417 64.5837 60.417ZM81.2503 60.417C80.6978 60.417 80.1679 60.6365 79.7772 61.0272C79.3865 61.4179 79.167 61.9478 79.167 62.5004V83.3337C79.167 83.8862 79.3865 84.4162 79.7772 84.8069C80.1679 85.1976 80.6978 85.417 81.2503 85.417C81.8029 85.417 82.3328 85.1976 82.7235 84.8069C83.1142 84.4162 83.3337 83.8862 83.3337 83.3337V62.5004C83.3337 61.9478 83.1142 61.4179 82.7235 61.0272C82.3328 60.6365 81.8029 60.417 81.2503 60.417Z" fill="#A480EF"/>
</svg>
