<svg width="100" height="100" viewBox="0 0 100 100" fill="none" xmlns="http://www.w3.org/2000/svg">
<path d="M29.9997 30.0002V22.5002C29.9997 20.7802 30.3247 19.1652 30.9747 17.6552C31.6247 16.1219 32.523 14.7935 33.6697 13.6702C34.7897 12.5235 36.118 11.6252 37.6547 10.9752C39.1647 10.3252 40.7797 10.0002 42.4997 10.0002C43.903 10.0002 45.2447 10.2219 46.5247 10.6652C47.8047 11.1119 48.9764 11.7369 50.0397 12.5402C52.1769 10.8916 54.8005 9.9983 57.4997 10.0002C59.9639 9.98654 62.3764 10.7074 64.4291 12.0709C66.4818 13.4343 68.0818 15.3785 69.0247 17.6552C69.6747 19.1652 69.9997 20.7802 69.9997 22.5002V30.0002H74.9997C76.3258 30.0002 77.5976 30.527 78.5352 31.4647C79.4729 32.4023 79.9997 33.6741 79.9997 35.0002V46.0352C77.5594 45.3461 75.0355 44.9978 72.4997 45.0002C67.9997 45.0002 63.7497 46.0802 59.9997 48.0002V30.0002H64.9997V22.5002C64.9997 21.4602 64.8047 20.4835 64.4147 19.5702C63.8499 18.2053 62.8895 17.0406 61.6571 16.2262C60.4247 15.4117 58.9768 14.9847 57.4997 15.0002C55.9664 15.0002 54.5864 15.4302 53.3597 16.2902C54.4379 18.182 55.0033 20.3227 54.9997 22.5002V51.2852C51.8693 53.8632 49.3489 57.1027 47.6199 60.7709C45.8908 64.4391 44.996 68.4449 44.9997 72.5002C44.9997 79.1502 47.3597 85.2502 51.2847 90.0002H34.9997C32.9164 90.0002 30.9764 89.6102 29.1797 88.8302C27.3998 88.0787 25.7818 86.9904 24.4147 85.6252C23.0464 84.2533 21.9474 82.6371 21.1747 80.8602C20.3804 79.0097 19.9802 77.0139 19.9997 75.0002V35.0002C19.9997 33.6741 20.5265 32.4023 21.4642 31.4647C22.4019 30.527 23.6736 30.0002 24.9997 30.0002H29.9997ZM49.9997 30.0002V22.5002C49.9997 21.4602 49.8047 20.4835 49.4147 19.5702C48.8499 18.2053 47.8895 17.0406 46.6571 16.2262C45.4247 15.4117 43.9768 14.9847 42.4997 15.0002C41.4597 15.0002 40.483 15.1952 39.5697 15.5852C38.2048 16.15 37.0401 17.1104 36.2257 18.3428C35.4112 19.5752 34.9843 21.0231 34.9997 22.5002V30.0002H49.9997ZM94.9997 72.5002C94.9997 78.4676 92.6292 84.1905 88.4096 88.4101C84.19 92.6297 78.4671 95.0002 72.4997 95.0002C66.5323 95.0002 60.8094 92.6297 56.5898 88.4101C52.3702 84.1905 49.9997 78.4676 49.9997 72.5002C49.9997 66.5328 52.3702 60.8099 56.5898 56.5903C60.8094 52.3707 66.5323 50.0002 72.4997 50.0002C78.4671 50.0002 84.19 52.3707 88.4096 56.5903C92.6292 60.8099 94.9997 66.5328 94.9997 72.5002ZM64.9997 60.0002C64.3367 60.0002 63.7008 60.2636 63.2319 60.7324C62.7631 61.2013 62.4997 61.8371 62.4997 62.5002V82.5002C62.4997 83.1632 62.7631 83.7991 63.2319 84.268C63.7008 84.7368 64.3367 85.0002 64.9997 85.0002C65.6627 85.0002 66.2986 84.7368 66.7675 84.268C67.2363 83.7991 67.4997 83.1632 67.4997 82.5002V62.5002C67.4997 61.8371 67.2363 61.2013 66.7675 60.7324C66.2986 60.2636 65.6627 60.0002 64.9997 60.0002ZM79.9997 60.0002C79.3367 60.0002 78.7008 60.2636 78.2319 60.7324C77.7631 61.2013 77.4997 61.8371 77.4997 62.5002V82.5002C77.4997 83.1632 77.7631 83.7991 78.2319 84.268C78.7008 84.7368 79.3367 85.0002 79.9997 85.0002C80.6627 85.0002 81.2986 84.7368 81.7675 84.268C82.2363 83.7991 82.4997 83.1632 82.4997 82.5002V62.5002C82.4997 61.8371 82.2363 61.2013 81.7675 60.7324C81.2986 60.2636 80.6627 60.0002 79.9997 60.0002Z" fill="#A480EF"/>
</svg>
