<svg width="150" height="150" viewBox="0 0 150 150" fill="none" xmlns="http://www.w3.org/2000/svg">
<path d="M17.0625 125L75 25L132.938 125H17.0625ZM27.8125 118.75H122.188L75 37.5L27.8125 118.75ZM75 110.1C76.0917 110.1 77.0063 109.731 77.7438 108.994C78.4813 108.256 78.8479 107.342 78.8438 106.25C78.8396 105.158 78.4708 104.246 77.7375 103.513C77.0042 102.779 76.0917 102.408 75 102.4C73.9083 102.392 72.9958 102.76 72.2625 103.506C71.5292 104.252 71.1604 105.167 71.1563 106.25C71.1521 107.333 71.5208 108.248 72.2625 108.994C73.0042 109.74 73.9167 110.108 75 110.1ZM71.875 96.1562H78.125V64.9062H71.875V96.1562Z" fill="#D0021B"/>
</svg>
