<svg width="100" height="100" viewBox="0 0 100 100" fill="none" xmlns="http://www.w3.org/2000/svg">
<g clip-path="url(#clip0_29_19)">
<path d="M75.0003 16.6663H8.33366V8.33301H75.0003V16.6663ZM72.917 54.1663H66.667V74.9997L81.7087 83.9997L84.8337 78.9163L72.917 71.8747V54.1663ZM100 70.833C100 86.958 86.9587 99.9997 70.8337 99.9997C56.1253 99.9997 44.042 89.1247 42.0003 74.9997H8.33366V49.9997H4.16699V41.6663L8.33366 20.833H75.0003L79.167 41.6663V42.8747C91.2087 46.4997 100 57.6247 100 70.833ZM12.667 41.6663H70.667L68.167 29.1663H15.167L12.667 41.6663ZM16.667 66.6663H41.667V49.9997H16.667V66.6663ZM91.667 70.833C91.667 59.333 82.3337 49.9997 70.8337 49.9997C59.3337 49.9997 50.0003 59.333 50.0003 70.833C50.0003 82.333 59.3337 91.6663 70.8337 91.6663C82.3337 91.6663 91.667 82.333 91.667 70.833Z" fill="#A480EF"/>
</g>
<defs>
<clipPath id="clip0_29_19">
<rect width="100" height="100" fill="white"/>
</clipPath>
</defs>
</svg>
