<svg width="96" height="92" viewBox="0 0 96 92" fill="none" xmlns="http://www.w3.org/2000/svg">
<path d="M71.0003 8.66634H4.33366V0.333008H71.0003V8.66634ZM68.917 46.1663H62.667V66.9997L77.7087 75.9997L80.8337 70.9163L68.917 63.8747V46.1663ZM96.0003 62.833C96.0003 78.958 82.9587 91.9997 66.8337 91.9997C52.1253 91.9997 40.042 81.1247 38.0003 66.9997H4.33366V41.9997H0.166992V33.6663L4.33366 12.833H71.0003L75.167 33.6663V34.8747C87.2087 38.4997 96.0003 49.6247 96.0003 62.833ZM8.66699 33.6663H66.667L64.167 21.1663H11.167L8.66699 33.6663ZM12.667 58.6663H37.667V41.9997H12.667V58.6663ZM87.667 62.833C87.667 51.333 78.3337 41.9997 66.8337 41.9997C55.3337 41.9997 46.0003 51.333 46.0003 62.833C46.0003 74.333 55.3337 83.6663 66.8337 83.6663C78.3337 83.6663 87.667 74.333 87.667 62.833Z" fill="#A480EF"/>
</svg>
